<svg width="540" height="524" viewBox="0 0 540 524" fill="none" xmlns="http://www.w3.org/2000/svg">
<path d="M125.187 397L167 330.878L73.3587 271L25 347.473L102.453 397H125.187V397Z" fill="#F0F0F0"/>
<path fill-rule="evenodd" clip-rule="evenodd" d="M80 416H183V396H80V416ZM181 414H81V397H181V414Z" fill="#3F3D56"/>
<path d="M171.5 413C175.09 413 178 410.09 178 406.5C178 402.91 175.09 400 171.5 400C167.91 400 165 402.91 165 406.5C165 410.09 167.91 413 171.5 413Z" fill="#222F65"/>
<path d="M151.5 413C155.09 413 158 410.09 158 406.5C158 402.91 155.09 400 151.5 400C147.91 400 145 402.91 145 406.5C145 410.09 147.91 413 151.5 413Z" fill="#222F65"/>
<path d="M133.5 413C137.09 413 140 410.09 140 406.5C140 402.91 137.09 400 133.5 400C129.91 400 127 402.91 127 406.5C127 410.09 129.91 413 133.5 413Z" fill="#222F65"/>
<path d="M114.5 413C118.09 413 121 410.09 121 406.5C121 402.91 118.09 400 114.5 400C110.91 400 108 402.91 108 406.5C108 410.09 110.91 413 114.5 413Z" fill="#222F65"/>
<path d="M95.5 413C99.0899 413 102 410.09 102 406.5C102 402.91 99.0899 400 95.5 400C91.9101 400 89 402.91 89 406.5C89 410.09 91.9101 413 95.5 413Z" fill="#222F65"/>
<path d="M307.462 184.941V133.866H333V109H208V234H314.855V221.778C314.855 217.177 316.683 212.765 319.936 209.511C323.19 206.258 327.602 204.43 332.203 204.43H333V184.941H307.462Z" fill="#F0F0F0"/>
<rect width="41" height="41" transform="matrix(0.970296 -0.241922 0.242124 0.970245 48 10)" fill="#F0F0F0"/>
<rect x="362" y="432" width="84" height="17" fill="#222F65"/>
<rect x="340" y="346" width="123" height="16" fill="#F0F0F0"/>
<rect y="523" width="524" height="1" fill="#3F3D56"/>
<path fill-rule="evenodd" clip-rule="evenodd" d="M331.035 524H483.965C493.921 523.989 501.989 515.925 502 505.973V222.027C501.989 212.075 493.921 204.011 483.965 204H331.035C321.079 204.011 313.011 212.075 313 222.027V505.973C313.011 515.925 321.079 523.989 331.035 524ZM314 221.666C314.01 212.466 321.464 205.01 330.662 205H483.338C492.536 205.01 499.99 212.466 500 221.666V505.334C499.99 514.534 492.536 521.99 483.338 522H330.662C321.464 521.99 314.01 514.534 314 505.334V221.666Z" fill="#3F3D56"/>
<path fill-rule="evenodd" clip-rule="evenodd" d="M386 214C386 216.209 387.791 218 390 218C392.208 217.998 393.998 216.208 394 214C394 211.791 392.209 210 390 210C387.791 210 386 211.791 386 214ZM387 213.5C387 212.119 388.119 211 389.5 211C390.88 211.001 391.999 212.12 392 213.5C392 214.881 390.881 216 389.5 216C388.119 216 387 214.881 387 213.5Z" fill="#3F3D56"/>
<rect x="400" y="213" width="30" height="1" fill="#3F3D56"/>
<path d="M491 223V277C461.177 276.999 437.001 252.823 437 223H491Z" fill="#222F65"/>
<path fill-rule="evenodd" clip-rule="evenodd" d="M325 506H491V223H325V506ZM489 504H326V224H489V504Z" fill="#3F3D56"/>
<path opacity="0.1" d="M451.5 274C461.717 274 470 265.717 470 255.5C470 245.283 461.717 237 451.5 237C441.283 237 433 245.283 433 255.5C433 265.717 441.283 274 451.5 274Z" fill="black"/>
<path d="M448.5 276C458.717 276 467 267.717 467 257.5C467 247.283 458.717 239 448.5 239C438.283 239 430 247.283 430 257.5C430 267.717 438.283 276 448.5 276Z" fill="#222F65"/>
<rect x="332" y="234" width="26" height="9" fill="#3F3D56"/>
<rect x="346" y="324" width="26" height="9" fill="#3F3D56"/>
<path fill-rule="evenodd" clip-rule="evenodd" d="M347 359H471V342H347V359ZM469 357H348V343H469V357Z" fill="#3F3D56"/>
<rect x="340" y="397" width="123" height="16" fill="#F0F0F0"/>
<rect x="346" y="374" width="26" height="9" fill="#3F3D56"/>
<path fill-rule="evenodd" clip-rule="evenodd" d="M347 410H471V393H347V410ZM469 408H348V394H469V408Z" fill="#3F3D56"/>
<path fill-rule="evenodd" clip-rule="evenodd" d="M366 445H451V427H366V445ZM449 443H367V428H449V443Z" fill="#3F3D56"/>
<path d="M466 352.5C466 355.241 464.28 357.688 461.7 358.616C459.121 359.544 456.237 358.754 454.491 356.64L454.484 356.634C452.783 354.57 452.52 351.676 453.82 349.339C455.12 347.002 457.719 345.701 460.368 346.059C463.018 346.417 465.178 348.362 465.812 350.959C465.811 350.961 465.812 350.963 465.813 350.964C465.815 350.965 465.816 350.966 465.818 350.966C465.938 351.469 465.999 351.983 466 352.5V352.5Z" fill="#222F65"/>
<path opacity="0.1" d="M466 352.125C466 355.025 464.235 357.612 461.589 358.594C458.943 359.575 455.985 358.739 454.193 356.504L454.187 356.497C454.064 355.966 454.001 355.421 454 354.875C454 351.975 455.765 349.388 458.411 348.406C461.057 347.425 464.015 348.261 465.807 350.496C465.807 350.498 465.807 350.499 465.809 350.501C465.81 350.502 465.812 350.503 465.813 350.503C465.936 351.034 465.999 351.579 466 352.125V352.125Z" fill="black"/>
<path d="M462.5 362C466.09 362 469 359.09 469 355.5C469 351.91 466.09 349 462.5 349C458.91 349 456 351.91 456 355.5C456 359.09 458.91 362 462.5 362Z" fill="#222F65"/>
<path d="M466 402.5C466 405.241 464.28 407.688 461.7 408.616C459.121 409.544 456.237 408.754 454.491 406.64L454.484 406.634C452.783 404.57 452.52 401.676 453.82 399.339C455.12 397.002 457.719 395.701 460.368 396.059C463.018 396.417 465.178 398.362 465.812 400.959C465.811 400.961 465.812 400.963 465.813 400.964C465.815 400.965 465.816 400.966 465.818 400.966C465.938 401.469 465.999 401.983 466 402.5V402.5Z" fill="#222F65"/>
<path opacity="0.1" d="M466 403.125C466 406.025 464.235 408.612 461.589 409.594C458.943 410.575 455.985 409.739 454.193 407.504L454.187 407.497C454.064 406.966 454.001 406.421 454 405.875C454 402.975 455.765 400.388 458.411 399.406C461.057 398.425 464.015 399.261 465.807 401.496C465.807 401.498 465.807 401.499 465.809 401.501C465.81 401.502 465.812 401.503 465.813 401.503C465.936 402.034 465.999 402.579 466 403.125V403.125Z" fill="black"/>
<path d="M462.5 413C466.09 413 469 410.09 469 406.5C469 402.91 466.09 400 462.5 400C458.91 400 456 402.91 456 406.5C456 410.09 458.91 413 462.5 413Z" fill="#222F65"/>
<rect x="315" y="141" width="35" height="35" fill="#F0F0F0"/>
<path fill-rule="evenodd" clip-rule="evenodd" d="M443 158C443 162.418 446.582 166 451 166C455.416 165.995 458.995 162.416 459 158C459 153.582 455.418 150 451 150C446.582 150 443 153.582 443 158ZM444 157.5C444 153.91 446.91 151 450.5 151C454.088 151.004 456.996 153.912 457 157.5C457 161.09 454.09 164 450.5 164C446.91 164 444 161.09 444 157.5Z" fill="#3F3D56"/>
<path fill-rule="evenodd" clip-rule="evenodd" d="M257 279H274V262H257V279ZM272 277H258V263H272V277Z" fill="#3F3D56"/>
<path fill-rule="evenodd" clip-rule="evenodd" d="M523 410H540V393H523V410ZM538 408H524V394H538V408Z" fill="#3F3D56"/>
<path d="M195 292.904L197.998 294.53L208.198 300.066L224.665 309L234.262 291.071C236.087 287.668 236.494 283.675 235.392 279.97C234.29 276.266 231.77 273.155 228.387 271.323C221.044 267.33 211.981 268.569 205.96 274.388L205.955 274.393C204.511 275.789 203.292 277.404 202.343 279.179L195 292.904Z" fill="#2F2E41"/>
<path d="M240 473.08L238.069 495.96L230.827 497L226 471L240 473.08V473.08Z" fill="#FFB8B8"/>
<path d="M228.352 497.618C228.352 497.618 237.927 492.486 239.943 496.592C239.943 496.592 238.431 508.908 244.479 510.448C250.527 511.987 253.047 522.764 244.479 523.791C235.912 524.817 230.368 521.738 227.344 521.738C224.32 521.738 227.344 510.961 227.344 510.961L228.352 497.618Z" fill="#2F2E41"/>
<path d="M179 473.08L180.931 495.96L188.173 497L193 471L179 473.08V473.08Z" fill="#FFB8B8"/>
<path d="M191.648 497.618C191.648 497.618 182.073 492.486 180.057 496.592C180.057 496.592 181.569 508.908 175.521 510.448C169.473 511.987 166.953 522.764 175.521 523.791C184.088 524.817 189.632 521.738 192.656 521.738C195.68 521.738 192.656 510.961 192.656 510.961L191.648 497.618Z" fill="#2F2E41"/>
<path d="M219.5 297C226.956 297 233 290.956 233 283.5C233 276.044 226.956 270 219.5 270C212.044 270 206 276.044 206 283.5C206 290.956 212.044 297 219.5 297Z" fill="#FFB8B8"/>
<path d="M179 308.8L189.495 325.494L201.988 324.482L222.477 326C222.477 326 224.411 322.084 225.991 318.275C226.855 316.373 227.52 314.384 227.974 312.341C228.474 308.8 221.478 305.259 221.478 305.259C221.478 305.259 221.203 305.208 220.743 305.097C220.134 304.95 219.194 304.707 218.165 304.353C215.841 303.554 213.047 302.198 212.483 300.2C211.483 296.659 218.979 291.6 218.979 291.6L209.984 283C209.984 283 201.993 294.236 192.288 296.795C191.725 296.946 191.155 297.064 190.579 297.149C190.549 297.155 190.524 297.16 190.494 297.165C179.999 298.682 179 308.8 179 308.8Z" fill="#FFB8B8"/>
<path d="M184.264 305L178.477 309.538C178.477 309.538 173.741 331.221 175.319 337.272C176.898 343.323 174.793 348.87 174.793 349.878C174.793 350.887 170.058 388.705 170.058 388.705C170.058 388.705 160.587 408.875 170.584 406.858C180.581 404.841 176.898 384.671 176.898 384.671L189 349.374V319.623L184.264 305Z" fill="#FFB8B8"/>
<path d="M224.046 309L228.137 312L230.183 353.995L245.525 389.992C245.525 389.992 256.776 407.49 249.616 407.99C242.456 408.49 237.854 389.992 237.854 389.992L224.046 355.495L222 321.999L224.046 309Z" fill="#FFB8B8"/>
<path d="M198.734 311C198.734 311 208.821 318.078 224.96 315.55C224.96 315.55 229.499 324.65 226.978 329.705C224.456 334.761 230.004 346.894 231.012 348.41C232.021 349.927 243.621 381.271 247.656 415.142C251.69 449.014 262.786 472.269 253.203 475.302C243.621 478.336 223.951 481.874 221.934 478.841C219.917 475.808 216.891 400.482 216.891 400.482L211.343 429.298C211.343 429.298 218.908 478.336 213.36 479.347C207.813 480.358 173.013 477.324 174.021 471.258C175.03 465.191 185.117 433.342 185.117 433.342C185.117 433.342 184.613 369.643 194.7 357.51C194.7 357.51 198.734 350.938 193.187 342.344C187.639 333.75 188.143 320.1 188.143 320.1C188.143 320.1 192.178 320.1 198.734 311Z" fill="#2F2E41"/>
<path d="M190 297.352L198.08 316L200 314.993L191.642 297L190 297.352V297.352Z" fill="#2F2E41"/>
<path d="M218 305L224.452 319L226 318.864L225.474 316.481L220.636 305.741C220.013 305.594 219.052 305.353 218 305Z" fill="#2F2E41"/>
<path d="M197.377 294.023C198.366 297.289 201.167 299.628 204.484 299.96C207.802 300.291 210.989 298.55 212.574 295.541C206.208 287.001 211.668 281.636 222.01 277.578C223.603 274.544 223.251 270.823 221.119 268.16C215.346 267.402 209.548 269.361 205.343 273.489L205.338 273.494L197.991 287.476C196.933 289.484 196.712 291.845 197.377 294.023V294.023Z" fill="#2F2E41"/>
<path d="M212.5 288C213.328 288 214 286.657 214 285C214 283.343 213.328 282 212.5 282C211.672 282 211 283.343 211 285C211 286.657 211.672 288 212.5 288Z" fill="#FFB8B8"/>
<path d="M218 280.121L233.212 287L236 280.859C235.52 278.614 234.514 276.515 233.065 274.732L222.595 270L218 280.121Z" fill="#2F2E41"/>
<path d="M254.5 415C258.09 415 261 412.09 261 408.5C261 404.91 258.09 402 254.5 402C250.91 402 248 404.91 248 408.5C248 412.09 250.91 415 254.5 415Z" fill="#222F65"/>
<path d="M38.5 455C40.9853 455 43 452.985 43 450.5C43 448.015 40.9853 446 38.5 446C36.0147 446 34 448.015 34 450.5C34 452.985 36.0147 455 38.5 455Z" fill="#FF6584"/>
<rect x="59" y="474" width="1" height="50" fill="#3F3D56"/>
<path d="M60 480C63.866 480 67 476.866 67 473C67 469.134 63.866 466 60 466C56.134 466 53 469.134 53 473C53 476.866 56.134 480 60 480Z" fill="#3F3D56"/>
<path d="M59 504C59 504 58.0233 482.727 38 485.2Z" fill="#3F3D56"/>
</svg>
